P2
7 17
255
128 128 128 128 128 128 128 
128 128 128 128 128 255 128 
128 255 255 255 255 255 128 
128 128 128 128 128 255 128 
128 128 128 128 128 128 128 
128 255 255 255 255 255 128 
128 255 128 255 128 255 128 
128 255 128 255 128 255 128 
128 128 128 128 128 128 128 
128 255 128 128 255 128 128 
128 255 128 255 128 255 128 
128 128 255 128 128 255 128 
128 128 128 128 128 128 128 
128 128 128 128 128 255 128 
128 255 255 255 255 255 128 
128 128 128 128 128 255 128 
128 128 128 128 128 128 128 
